<svg xmlns="http://www.w3.org/2000/svg" xmlns:xlink="http://www.w3.org/1999/xlink" width="443" zoomAndPan="magnify" viewBox="0 0 332.25 137.999998" height="184" preserveAspectRatio="xMidYMid meet" version="1.0"><defs><g/><clipPath id="bab4c7f33d"><path d="M 0 0.15625 L 331.5 0.15625 L 331.5 137.84375 L 0 137.84375 Z M 0 0.15625 " clip-rule="nonzero"/></clipPath><clipPath id="96f300dcf0"><path d="M 244 50 L 293.792969 50 L 293.792969 79 L 244 79 Z M 244 50 " clip-rule="nonzero"/></clipPath><clipPath id="e887b265d0"><path d="M 210 40 L 293.792969 40 L 293.792969 100.171875 L 210 100.171875 Z M 210 40 " clip-rule="nonzero"/></clipPath></defs><g clip-path="url(#bab4c7f33d)"><path fill="#ffffff" d="M 0 0.15625 L 332.25 0.15625 L 332.25 145.328125 L 0 145.328125 Z M 0 0.15625 " fill-opacity="1" fill-rule="nonzero"/><path fill="#ffffff" d="M 0 0.15625 L 331.5 0.15625 L 331.5 137.84375 L 0 137.84375 Z M 0 0.15625 " fill-opacity="1" fill-rule="nonzero"/></g><path fill="#ffffff" d="M 292.855469 64.425781 L 289.617188 87.152344 L 255.21875 99.234375 L 248.011719 99.234375 L 213.4375 86.25 L 210.917969 64.246094 L 247.835938 74.886719 L 255.757812 74.886719 Z M 227.484375 68.933594 C 227.484375 68.933594 228.203125 48.011719 231.085938 46.210938 C 233.96875 44.40625 235.046875 45.847656 235.046875 45.847656 C 235.046875 45.847656 242.972656 48.375 251.617188 45.847656 C 251.617188 45.847656 254.667969 41.382812 258.121094 45.925781 C 257.097656 43.644531 255.890625 42.058594 254.679688 42.058594 C 252.519531 42.058594 251.4375 45.667969 251.4375 45.667969 C 243.875 43.863281 234.867188 45.667969 234.867188 45.667969 C 232.347656 38.089844 228.382812 42.421875 226.941406 54.324219 C 226.230469 60.222656 226.222656 64.347656 226.398438 67.011719 Z M 281.5625 54.941406 C 273.660156 49.058594 264.011719 51.050781 261.015625 51.878906 C 264.585938 59.949219 270.5 51.234375 281.5625 54.941406 Z M 281.5625 54.941406 " fill-opacity="1" fill-rule="nonzero"/><path fill="#fdf5d8" d="M 292.855469 64.425781 L 289.617188 87.152344 L 255.21875 99.234375 L 248.011719 99.234375 L 248.011719 74.886719 L 247.835938 74.886719 L 226.558594 68.753906 C 226.496094 68.265625 226.445312 67.683594 226.398438 67.011719 L 227.484375 68.933594 C 227.484375 68.933594 228.203125 48.011719 231.085938 46.210938 C 233.96875 44.40625 235.046875 45.847656 235.046875 45.847656 C 235.046875 45.847656 242.972656 48.375 251.617188 45.847656 C 251.617188 45.847656 254.667969 41.382812 258.121094 45.925781 C 258.921875 47.71875 259.605469 49.9375 260.082031 52.160156 C 260.082031 52.160156 260.414062 52.042969 261.015625 51.878906 C 264.585938 59.945312 270.496094 51.242188 281.546875 54.9375 C 284.53125 57.15625 287.261719 60.488281 289.296875 65.429688 L 255.757812 74.886719 Z M 292.855469 64.425781 " fill-opacity="1" fill-rule="nonzero"/><g clip-path="url(#96f300dcf0)"><path fill="#edd17a" d="M 263.183594 51.378906 C 264.574219 51.117188 266.359375 50.890625 268.355469 50.875 C 268.253906 53.21875 267.824219 56.488281 266.203125 56.488281 C 264.433594 56.488281 263.550781 53.285156 263.183594 51.378906 Z M 274.128906 56.851562 C 275.367188 56.851562 275.777344 54.238281 275.902344 52.011719 C 274.421875 51.523438 272.945312 51.222656 271.527344 51.054688 C 271.90625 53.402344 272.703125 56.851562 274.128906 56.851562 Z M 289.273438 65.382812 C 288.765625 64.152344 288.214844 63.019531 287.625 61.980469 L 244.824219 73.203125 L 244.691406 73.984375 L 247.835938 74.886719 L 255.757812 74.886719 L 286.613281 66.1875 L 256.601562 75.257812 L 256.390625 78.625 L 292.5 67.671875 L 293.039062 64.246094 Z M 289.273438 65.382812 " fill-opacity="1" fill-rule="nonzero"/></g><g clip-path="url(#e887b265d0)"><path fill="#6e4139" d="M 293.449219 63.746094 C 293.222656 63.546875 292.90625 63.472656 292.613281 63.558594 L 289.808594 64.347656 C 285.261719 54.007812 277.609375 50.917969 271.855469 50.183594 C 266.894531 49.546875 262.59375 50.496094 260.738281 51.011719 C 260.03125 48.09375 257.992188 41.15625 254.675781 41.15625 C 252.582031 41.15625 251.375 43.367188 250.859375 44.613281 C 244.59375 43.324219 237.734375 44.265625 235.457031 44.644531 C 234.472656 42.078125 233.222656 40.855469 231.734375 41.007812 C 228 41.382812 226.515625 50.371094 226.050781 54.214844 C 225.285156 60.507812 225.320312 64.816406 225.53125 67.519531 L 211.164062 63.378906 C 210.875 63.296875 210.5625 63.363281 210.332031 63.558594 C 210.101562 63.75 209.988281 64.046875 210.019531 64.347656 L 212.542969 86.355469 C 212.582031 86.691406 212.804688 86.976562 213.121094 87.09375 L 247.699219 100.082031 C 247.800781 100.121094 247.90625 100.140625 248.015625 100.140625 L 255.21875 100.140625 C 255.320312 100.140625 255.421875 100.121094 255.515625 100.089844 L 289.914062 88.003906 C 290.230469 87.890625 290.460938 87.613281 290.507812 87.28125 L 293.75 64.554688 C 293.792969 64.25 293.679688 63.949219 293.449219 63.746094 Z M 227.835938 54.433594 C 228.839844 46.160156 230.871094 42.910156 231.914062 42.804688 C 232.421875 42.75 233.265625 43.707031 234.011719 45.953125 C 234.15625 46.382812 234.597656 46.640625 235.042969 46.550781 C 235.132812 46.535156 243.941406 44.804688 251.226562 46.546875 C 251.691406 46.65625 252.160156 46.382812 252.296875 45.925781 C 252.53125 45.15625 253.46875 42.960938 254.675781 42.960938 C 255.890625 42.960938 258 46.734375 259.199219 52.347656 C 259.253906 52.601562 259.414062 52.820312 259.640625 52.949219 C 259.867188 53.074219 260.136719 53.097656 260.382812 53.011719 C 260.433594 52.992188 265.617188 51.1875 271.691406 51.980469 C 279.179688 52.960938 284.679688 57.285156 288.0625 64.839844 L 255.632812 73.984375 L 247.960938 73.984375 L 227.390625 68.054688 C 227.144531 65.5625 227.023438 61.167969 227.835938 54.433594 Z M 248.734375 75.789062 L 255.039062 75.789062 L 255.039062 98.335938 L 248.734375 98.335938 Z M 211.964844 65.484375 L 246.933594 75.566406 L 246.933594 97.867188 L 214.269531 85.597656 Z M 288.800781 86.484375 L 256.839844 97.710938 L 256.839844 75.519531 L 291.769531 65.667969 Z M 236.847656 55.226562 C 236.847656 55.824219 236.363281 56.308594 235.769531 56.308594 C 235.171875 56.308594 234.6875 55.824219 234.6875 55.226562 C 234.6875 54.628906 235.171875 54.144531 235.769531 54.144531 C 236.367188 54.144531 236.847656 54.628906 236.847656 55.226562 Z M 249.453125 55.226562 C 249.453125 54.628906 249.9375 54.144531 250.535156 54.144531 C 251.132812 54.144531 251.617188 54.628906 251.617188 55.226562 C 251.617188 55.824219 251.132812 56.308594 250.535156 56.308594 C 249.9375 56.308594 249.453125 55.824219 249.453125 55.226562 Z M 241.960938 57.011719 C 242.472656 56.894531 243.28125 56.804688 244.292969 57.027344 C 244.546875 57.085938 244.605469 57.417969 244.382812 57.550781 L 243.296875 58.207031 C 243.207031 58.261719 243.09375 58.261719 243.003906 58.207031 L 241.882812 57.53125 C 241.667969 57.398438 241.714844 57.066406 241.960938 57.011719 Z M 249.148438 61.496094 C 246.792969 63.5625 244.421875 63.03125 243.117188 62.257812 C 242.191406 62.773438 241.363281 62.964844 240.644531 62.964844 C 238.566406 62.964844 237.390625 61.367188 237.375 61.34375 C 237.085938 60.9375 237.183594 60.375 237.585938 60.085938 C 237.988281 59.796875 238.546875 59.886719 238.839844 60.289062 C 239.066406 60.589844 240.300781 62 242.652344 60.429688 C 242.988281 60.207031 243.433594 60.234375 243.738281 60.496094 C 243.9375 60.65625 245.761719 62.066406 247.960938 60.140625 C 248.335938 59.8125 248.90625 59.851562 249.234375 60.226562 C 249.558594 60.597656 249.523438 61.167969 249.148438 61.496094 Z M 249.148438 61.496094 " fill-opacity="1" fill-rule="nonzero"/></g><g fill="#000000" fill-opacity="1"><g transform="translate(38.454408, 72.00797)"><g><path d="M 26.988281 -20.800781 C 26.785156 -21.25 26.4375 -21.75 26.039062 -22.046875 C 24.839844 -22.945312 22.695312 -23.09375 21.148438 -22.945312 C 19.054688 -22.746094 17.558594 -22.148438 14.664062 -20.800781 C 13.519531 -20.253906 12.570312 -19.554688 11.523438 -18.753906 C 10.726562 -18.15625 10.027344 -17.457031 9.527344 -16.609375 C 8.53125 -15.113281 8.378906 -13.417969 9.179688 -11.621094 C 9.875 -9.976562 11.722656 -8.628906 12.621094 -8.082031 C 13.617188 -7.433594 14.617188 -6.734375 15.714844 -6.183594 C 17.308594 -5.4375 18.855469 -4.488281 20.152344 -3.292969 C 20.902344 -2.59375 21.597656 -1.894531 22 -0.949219 C 22.496094 0.101562 22.296875 1.046875 21.75 1.894531 C 21.300781 2.59375 20.652344 3.292969 19.953125 3.742188 C 18.207031 4.886719 15.613281 6.183594 12.917969 6.585938 C 11.773438 6.785156 10.625 6.832031 9.476562 6.785156 C 8.53125 6.734375 7.53125 6.433594 6.535156 5.835938 C 5.136719 4.988281 4.589844 2.742188 4.6875 1.246094 C 4.839844 -0.699219 6.085938 -1.695312 7.730469 -2.195312 C 8.578125 -2.492188 7.082031 -3.992188 5.886719 -3.390625 C 5.636719 -3.292969 2.445312 -0.101562 2.492188 1.097656 C 2.644531 4.539062 4.988281 7.082031 8.628906 7.730469 C 10.773438 8.082031 12.917969 8.128906 15.066406 7.78125 C 18.257812 7.28125 22.046875 5.636719 23.542969 3.542969 C 24.191406 2.59375 24.441406 1.546875 23.992188 0.300781 C 23.394531 -1.148438 22.546875 -2.394531 21.351562 -3.441406 C 19.804688 -4.789062 18.105469 -5.886719 16.261719 -6.832031 C 15.914062 -7.035156 15.5625 -7.183594 15.214844 -7.433594 C 14.367188 -7.929688 13.417969 -8.429688 12.570312 -9.027344 C 10.925781 -10.324219 9.777344 -12.421875 11.023438 -14.714844 C 12.320312 -16.960938 14.617188 -18.007812 15.363281 -18.65625 L 16.5625 -19.554688 C 16.660156 -19.902344 16.808594 -20.050781 17.058594 -20.050781 C 17.257812 -20.050781 17.609375 -20.152344 17.757812 -20.253906 C 17.957031 -20.351562 18.058594 -20.453125 18.257812 -20.601562 C 18.457031 -20.949219 20.949219 -21.398438 21.398438 -21.5 C 21.398438 -21.5 22.046875 -21.398438 22.347656 -21.597656 L 23.246094 -21.5 C 23.792969 -21.449219 24.691406 -20.949219 25.039062 -20.253906 C 25.441406 -19.453125 25.441406 -18.707031 25.339844 -17.90625 C 25.140625 -16.460938 24.691406 -15.914062 23.742188 -15.015625 C 23.09375 -14.367188 22.445312 -14.167969 22.597656 -13.765625 C 23.34375 -12.519531 24.191406 -12.820312 25.242188 -13.617188 C 27.335938 -15.363281 28.035156 -18.40625 26.988281 -20.800781 Z M 26.988281 -20.800781 "/></g></g></g><g fill="#000000" fill-opacity="1"><g transform="translate(66.486786, 72.00797)"><g><path d="M 10.476562 -16.460938 C 10.773438 -16.511719 11.421875 -16.609375 11.621094 -16.460938 C 11.972656 -16.609375 12.46875 -16.609375 12.769531 -16.609375 L 12.871094 -16.660156 C 13.070312 -16.960938 13.816406 -17.011719 13.667969 -17.507812 C 13.519531 -17.609375 13.269531 -17.410156 13.167969 -17.359375 C 12.121094 -17.160156 11.820312 -17.210938 9.429688 -17.308594 C 9.226562 -17.257812 8.828125 -17.410156 8.128906 -17.457031 C 8.230469 -18.007812 8.378906 -18.257812 8.730469 -19.253906 C 8.980469 -19.902344 9.378906 -20.550781 9.527344 -21.148438 C 10.027344 -22 10.425781 -22.894531 10.824219 -23.84375 C 10.972656 -24.191406 11.125 -24.441406 10.726562 -24.691406 C 10.625 -24.839844 10.425781 -24.941406 10.375 -25.089844 C 10.324219 -25.488281 9.875 -25.589844 9.476562 -25.839844 C 9.378906 -25.890625 9.277344 -25.890625 9.226562 -25.988281 C 9.027344 -26.039062 8.878906 -25.988281 8.78125 -25.6875 C 8.679688 -25.339844 8.480469 -24.839844 8.378906 -24.492188 C 8.230469 -24.242188 8.082031 -24.144531 8.082031 -23.945312 C 7.78125 -23.34375 7.683594 -22.796875 7.433594 -22.246094 C 7.28125 -21.648438 6.984375 -21.101562 6.832031 -20.601562 C 6.632812 -20.101562 6.433594 -19.652344 6.285156 -19.15625 C 5.984375 -18.65625 5.9375 -18.15625 5.636719 -17.660156 C 5.335938 -17.660156 4.988281 -17.660156 4.539062 -17.609375 L 3.589844 -17.707031 C 3.242188 -17.859375 2.894531 -17.757812 2.59375 -17.609375 C 2.492188 -17.558594 2.34375 -17.609375 2.292969 -17.609375 C 2.292969 -17.609375 2.09375 -17.660156 1.84375 -17.359375 C 1.597656 -17.257812 1.496094 -16.960938 1.496094 -16.808594 C 1.546875 -16.363281 2.09375 -16.261719 2.695312 -16.113281 C 3.640625 -16.011719 4.339844 -15.960938 4.988281 -15.960938 L 4.488281 -14.414062 L 2.894531 -9.429688 C 2.941406 -9.378906 2.941406 -9.277344 2.992188 -9.226562 L 2.894531 -9.226562 C 2.792969 -8.980469 2.644531 -8.828125 2.644531 -8.628906 C 2.445312 -7.980469 2.445312 -7.433594 2.246094 -6.882812 L 1.894531 -5.488281 C 1.796875 -4.886719 1.597656 -4.289062 1.644531 -3.691406 C 1.546875 -2.644531 1.398438 -1.644531 1.597656 -0.648438 C 1.796875 0.347656 1.996094 1.347656 2.542969 2.144531 C 2.644531 2.246094 2.742188 2.34375 2.84375 2.492188 C 3.242188 2.941406 3.441406 3.242188 3.890625 3.390625 C 4.589844 3.839844 4.738281 3.792969 5.488281 3.742188 L 5.386719 3.742188 C 5.6875 3.742188 5.785156 3.691406 5.886719 3.542969 C 6.136719 3.144531 6.585938 2.84375 6.433594 2.34375 C 6.433594 2.34375 5.835938 2.644531 5.4375 2.59375 C 4.988281 2.644531 4.9375 2.59375 4.488281 2.34375 L 4.140625 1.945312 C 4.039062 1.84375 3.839844 1.644531 3.839844 1.296875 C 3.742188 0.949219 3.640625 0.597656 3.691406 0.25 C 3.691406 0.0507812 3.691406 -0.101562 3.492188 -0.148438 C 3.691406 -0.25 3.542969 -0.300781 3.441406 -0.398438 C 3.691406 -0.449219 3.640625 -1.347656 3.441406 -1.597656 C 3.542969 -1.746094 3.640625 -1.945312 3.691406 -2.09375 C 3.589844 -2.144531 3.542969 -2.195312 3.589844 -2.195312 C 3.640625 -2.246094 3.691406 -2.34375 3.691406 -2.445312 C 3.691406 -2.84375 3.742188 -3.191406 3.890625 -3.640625 C 3.839844 -3.792969 3.890625 -4.039062 3.941406 -4.238281 C 3.941406 -4.390625 4.089844 -4.589844 4.089844 -4.6875 C 4.089844 -4.9375 4.238281 -5.238281 4.089844 -5.488281 C 4.191406 -5.636719 4.339844 -5.785156 4.390625 -5.9375 C 4.441406 -6.484375 4.640625 -7.035156 4.789062 -7.582031 C 4.789062 -7.882812 4.9375 -8.179688 5.089844 -8.480469 C 5.136719 -8.929688 5.386719 -9.429688 5.488281 -9.925781 C 5.535156 -10.125 5.636719 -10.324219 5.738281 -10.574219 C 5.835938 -10.875 5.785156 -11.171875 5.9375 -11.523438 C 5.9375 -11.621094 5.886719 -11.722656 5.9375 -11.722656 C 6.234375 -11.820312 6.183594 -12.023438 6.136719 -12.121094 C 6.085938 -12.222656 6.183594 -12.320312 6.183594 -12.421875 C 6.386719 -12.621094 6.535156 -12.96875 6.484375 -13.167969 C 6.585938 -13.320312 6.683594 -13.417969 6.632812 -13.519531 C 6.535156 -13.71875 6.734375 -14.117188 6.933594 -14.214844 L 7.480469 -15.914062 L 8.03125 -15.914062 C 8.480469 -15.960938 9.226562 -15.914062 9.777344 -15.914062 C 10.425781 -15.960938 10.875 -15.960938 11.125 -15.960938 C 11.574219 -15.960938 12.023438 -16.011719 12.171875 -16.113281 L 12.917969 -16.210938 C 13.019531 -16.261719 13.070312 -16.3125 12.917969 -16.410156 C 11.921875 -16.3125 11.523438 -16.3125 9.578125 -16.261719 L 9.628906 -16.363281 Z M 10.476562 -16.460938 "/></g></g></g><g fill="#000000" fill-opacity="1"><g transform="translate(76.961515, 72.00797)"><g><path d="M 13.917969 1.347656 L 15.113281 1.195312 C 15.8125 0.898438 16.511719 0.75 17.109375 0 C 17.109375 0 17.058594 0 17.058594 -0.0507812 L 17.558594 -0.75 C 17.808594 -0.75 18.15625 -1.046875 18.15625 -1.296875 C 18.207031 -1.546875 18.308594 -1.746094 18.554688 -1.746094 C 18.65625 -1.746094 18.753906 -1.796875 18.957031 -1.796875 C 18.753906 -1.84375 18.707031 -1.894531 18.65625 -1.945312 C 18.855469 -2.046875 18.707031 -2.246094 18.957031 -2.34375 C 19.105469 -2.445312 19.503906 -2.492188 19.304688 -2.84375 L 19.503906 -2.941406 C 19.554688 -3.441406 19.953125 -3.640625 20.203125 -3.941406 C 20.402344 -4.191406 20.453125 -4.640625 19.902344 -4.640625 L 19.203125 -3.992188 C 18.308594 -3.242188 17.359375 -2.542969 16.410156 -1.894531 C 15.914062 -1.546875 15.414062 -1.195312 14.863281 -0.949219 C 14.015625 -0.546875 12.671875 -0.199219 12.121094 -0.75 C 12.023438 -0.898438 11.972656 -1.046875 11.921875 -1.246094 C 11.671875 -2.246094 11.820312 -3.242188 12.222656 -4.191406 C 12.320312 -4.589844 12.46875 -4.9375 12.71875 -5.238281 C 13.019531 -6.085938 11.621094 -6.285156 11.621094 -6.484375 L 10.574219 -6.484375 C 10.425781 -6.386719 10.324219 -6.285156 10.277344 -6.183594 C 9.976562 -5.886719 9.726562 -5.535156 9.429688 -5.238281 C 8.929688 -4.738281 8.480469 -4.140625 7.980469 -3.640625 C 7.433594 -3.09375 7.035156 -2.59375 6.484375 -2.09375 C 6.085938 -1.746094 5.835938 -1.398438 5.136719 -0.996094 C 4.839844 -0.796875 4.441406 -0.699219 4.140625 -0.847656 C 3.742188 -1.097656 3.941406 -1.796875 4.140625 -2.246094 C 4.289062 -2.59375 4.839844 -3.640625 5.089844 -4.238281 C 5.636719 -5.488281 5.9375 -6.183594 5.535156 -6.882812 C 5.386719 -7.132812 4.988281 -7.234375 4.738281 -7.433594 C 4.390625 -7.53125 4.039062 -7.53125 3.640625 -7.433594 C 3.34375 -7.332031 3.09375 -7.183594 2.894531 -7.035156 C 2.742188 -6.933594 2.542969 -6.832031 2.445312 -6.632812 C 2.394531 -6.386719 2.59375 -6.136719 2.792969 -5.785156 C 2.941406 -5.636719 3.34375 -5.6875 3.839844 -5.835938 C 3.992188 -5.488281 2.59375 -3.941406 2.195312 -2.492188 C 1.945312 -1.644531 1.894531 -1.046875 2.394531 -0.101562 C 2.542969 0.199219 3.792969 1.347656 4.339844 1.296875 C 5.089844 1.246094 5.6875 0.796875 6.386719 0.5 C 7.582031 -0.5 8.679688 -1.546875 9.578125 -2.542969 C 9.675781 -2.394531 9.726562 -2.34375 9.675781 -2.246094 C 9.828125 -1.945312 9.925781 -1.644531 10.125 -1.347656 C 10.175781 -1.246094 10.277344 -1.148438 10.375 -0.996094 C 10.523438 -0.597656 10.675781 -0.199219 11.171875 0 C 11.472656 0.101562 11.722656 0.25 11.921875 0.546875 C 11.921875 0.648438 12.171875 0.75 12.371094 0.847656 C 12.519531 0.898438 12.71875 0.996094 12.871094 1.097656 C 13.070312 1.097656 13.269531 1.195312 13.519531 1.296875 C 13.667969 1.347656 13.765625 1.296875 13.917969 1.347656 Z M 13.917969 1.347656 "/></g></g></g><g fill="#000000" fill-opacity="1"><g transform="translate(96.264944, 72.00797)"><g><path d="M 24.941406 -31.324219 L 24.890625 -32.222656 L 24.742188 -32.523438 C 24.839844 -32.574219 24.890625 -32.722656 24.890625 -32.722656 C 24.742188 -33.121094 25.039062 -33.570312 24.941406 -33.96875 C 24.59375 -34.570312 24.492188 -35.167969 23.945312 -35.464844 C 23.246094 -35.964844 22.398438 -36.214844 21.597656 -36.015625 C 20.5 -35.816406 19.554688 -35.417969 18.855469 -34.617188 C 18.65625 -34.320312 18.40625 -34.019531 18.207031 -33.769531 C 18.007812 -33.519531 17.609375 -33.273438 17.609375 -32.824219 C 17.609375 -32.773438 17.609375 -32.773438 17.558594 -32.722656 C 17.410156 -32.472656 17.160156 -32.222656 17.011719 -31.976562 C 16.960938 -31.976562 16.910156 -31.925781 16.910156 -31.875 C 16.660156 -31.375 16.460938 -30.925781 16.160156 -30.578125 C 16.113281 -30.527344 16.113281 -30.527344 16.113281 -30.429688 L 15.664062 -29.582031 C 15.613281 -29.378906 15.464844 -29.132812 15.265625 -28.882812 C 15.066406 -28.53125 15.015625 -28.234375 14.863281 -27.933594 C 14.566406 -27.386719 14.367188 -26.9375 14.117188 -26.488281 L 13.667969 -25.140625 C 13.46875 -24.839844 13.320312 -24.390625 13.070312 -23.644531 C 12.621094 -22.445312 12.171875 -21.300781 11.871094 -20.050781 C 11.574219 -19.203125 10.824219 -16.511719 10.773438 -16.363281 C 10.625 -15.613281 10.523438 -14.964844 10.375 -14.316406 C 10.125 -13.417969 9.976562 -12.671875 9.777344 -11.820312 L 9.277344 -8.480469 C 9.277344 -8.28125 9.226562 -8.128906 9.179688 -8.03125 C 9.179688 -7.980469 9.078125 -7.78125 9.078125 -7.683594 C 8.730469 -6.832031 8.730469 -6.984375 8.730469 -6.933594 L 7.929688 -5.488281 L 6.585938 -3.589844 C 6.335938 -3.242188 5.9375 -2.992188 5.738281 -2.59375 C 5.335938 -2.246094 5.089844 -1.746094 4.640625 -1.398438 C 4.238281 -0.996094 3.992188 -0.847656 3.542969 -0.597656 C 3.191406 -0.398438 2.644531 -0.101562 1.996094 -0.398438 C 2.046875 -0.996094 1.796875 -1.546875 2.144531 -2.195312 C 2.246094 -2.292969 2.246094 -2.492188 2.292969 -2.644531 C 2.292969 -2.894531 2.445312 -3.542969 2.59375 -4.039062 C 2.695312 -4.191406 2.695312 -4.289062 2.695312 -4.390625 C 2.742188 -4.441406 2.941406 -4.839844 3.042969 -5.039062 C 3.390625 -5.785156 3.941406 -6.585938 4.589844 -7.132812 C 4.789062 -7.382812 5.039062 -7.480469 5.289062 -7.683594 C 6.136719 -7.980469 6.585938 -7.882812 6.785156 -7.382812 C 6.882812 -6.683594 7.183594 -6.386719 7.832031 -6.433594 L 7.929688 -6.433594 C 9.527344 -7.832031 7.980469 -9.027344 7.980469 -9.027344 C 7.980469 -9.027344 5.089844 -10.425781 2.09375 -7.082031 L 1.796875 -6.632812 C 1.597656 -6.386719 1.398438 -5.984375 1.148438 -5.488281 C 1.046875 -5.488281 1.046875 -5.4375 1.046875 -5.4375 C 0.949219 -5.1875 0.699219 -4.441406 0.5 -3.941406 L 0.398438 -3.941406 L 0.398438 -3.890625 C 0.300781 -3.292969 0.25 -2.84375 0.0507812 -2.292969 C -0.0507812 -1.695312 0.347656 -1.296875 0.449219 -0.847656 C 0.5 -0.648438 0.449219 -0.449219 0.5 -0.347656 C 0.699219 0 0.796875 0.398438 0.996094 0.546875 C 1.347656 0.796875 1.746094 1.148438 2.09375 1.195312 C 2.84375 1.398438 3.640625 1.445312 4.441406 0.949219 C 4.988281 0.648438 5.4375 0.398438 5.886719 0.101562 C 6.234375 -0.300781 6.632812 -0.699219 6.984375 -1.046875 C 7.28125 -1.445312 7.382812 -1.398438 7.882812 -2.09375 C 7.980469 -2.246094 8.082031 -2.492188 8.179688 -2.59375 L 8.730469 -3.390625 C 8.828125 -3.042969 9.078125 -2.445312 9.226562 -1.746094 L 9.277344 -1.546875 L 9.429688 -1.398438 C 9.628906 -0.847656 9.875 -0.546875 10.476562 -0.101562 C 11.023438 0.199219 11.773438 0.449219 12.46875 0.449219 C 12.820312 0.449219 13.167969 0.546875 13.46875 0.546875 C 13.765625 0.546875 14.015625 0.546875 14.265625 0.449219 C 14.714844 0.398438 15.113281 0.25 15.464844 0.101562 C 15.914062 -0.148438 17.109375 -0.449219 17.609375 -0.75 C 18.207031 -1.296875 18.257812 -1.347656 18.957031 -1.894531 C 18.957031 -1.996094 18.804688 -2.046875 18.804688 -2.046875 C 19.203125 -2.394531 19.402344 -2.644531 19.753906 -2.992188 C 19.652344 -2.992188 20.300781 -3.839844 20.253906 -3.890625 C 20.152344 -3.890625 20.152344 -3.941406 20.050781 -3.890625 C 19.804688 -3.691406 19.554688 -3.589844 19.304688 -3.441406 C 18.058594 -2.894531 16.910156 -2.144531 15.664062 -1.695312 C 14.863281 -1.445312 14.117188 -1.195312 13.417969 -1.195312 C 12.769531 -1.148438 12.519531 -1.148438 11.871094 -1.347656 C 11.671875 -1.445312 11.472656 -1.546875 11.273438 -1.84375 C 11.171875 -1.894531 11.074219 -2.195312 11.074219 -2.246094 L 10.925781 -2.792969 L 10.675781 -4.539062 C 10.675781 -4.738281 10.523438 -4.988281 10.625 -5.089844 C 10.773438 -5.335938 10.824219 -5.488281 10.726562 -5.585938 C 10.824219 -5.636719 10.824219 -5.785156 10.824219 -5.835938 L 10.824219 -6.035156 C 10.824219 -6.136719 10.824219 -6.234375 10.925781 -6.386719 L 13.117188 -9.179688 C 13.167969 -9.277344 13.21875 -9.429688 13.320312 -9.476562 C 13.417969 -9.628906 13.417969 -9.726562 13.519531 -9.828125 C 13.617188 -9.828125 13.617188 -9.828125 13.867188 -10.078125 C 14.066406 -10.375 14.265625 -10.625 14.515625 -10.773438 C 14.617188 -10.925781 14.914062 -11.074219 15.265625 -11.671875 L 15.664062 -12.371094 C 15.8125 -12.320312 15.914062 -12.671875 16.011719 -12.621094 C 16.0625 -12.769531 16.410156 -13.417969 16.660156 -13.917969 C 16.960938 -14.316406 17.410156 -15.113281 17.457031 -15.113281 C 17.757812 -15.414062 19.804688 -18.207031 19.554688 -18.308594 L 20.5 -19.453125 C 20.75 -19.753906 20.851562 -19.902344 20.949219 -20.601562 L 21.050781 -20.601562 C 21.101562 -20.800781 21.25 -21 21.351562 -21.148438 L 21.898438 -21.75 C 22.097656 -22.097656 22.296875 -22.597656 22.296875 -22.796875 C 22.496094 -22.996094 22.546875 -23.246094 22.648438 -23.695312 C 22.796875 -23.742188 22.847656 -23.792969 22.894531 -23.792969 C 22.894531 -24.042969 22.894531 -24.34375 22.945312 -24.59375 L 22.996094 -24.839844 L 22.996094 -24.890625 C 23.09375 -24.941406 23.195312 -24.941406 23.34375 -24.941406 L 23.59375 -25.640625 C 24.144531 -25.890625 24.042969 -26.738281 23.894531 -27.035156 C 23.894531 -27.035156 24.042969 -27.085938 24.042969 -27.1875 C 24.191406 -27.882812 24.390625 -28.433594 24.492188 -29.03125 L 24.742188 -29.980469 C 24.890625 -30.328125 25.039062 -30.828125 24.941406 -31.324219 Z M 22.996094 -32.421875 C 22.796875 -31.425781 22.597656 -30.578125 22.445312 -29.582031 C 22.347656 -28.933594 22.148438 -28.285156 21.898438 -27.585938 L 21.449219 -26.585938 L 20.652344 -24.441406 C 20.402344 -23.84375 20.101562 -23.34375 19.753906 -22.796875 C 19.253906 -21.796875 18.65625 -20.851562 18.15625 -19.902344 C 17.859375 -19.453125 17.507812 -19.054688 17.308594 -18.605469 C 16.960938 -18.105469 16.609375 -17.507812 16.261719 -17.011719 L 15.113281 -15.414062 L 14.167969 -14.066406 C 13.816406 -13.667969 13.566406 -13.21875 13.269531 -12.917969 C 12.820312 -12.320312 12.371094 -11.671875 11.921875 -11.171875 C 11.722656 -10.925781 11.574219 -10.675781 11.375 -10.476562 C 11.375 -10.523438 11.421875 -11.125 11.574219 -11.421875 L 11.722656 -12.121094 C 11.871094 -12.371094 11.972656 -12.671875 12.121094 -12.917969 C 12.171875 -12.96875 12.121094 -13.019531 12.121094 -13.117188 C 12.121094 -13.117188 11.972656 -13.167969 11.972656 -13.21875 C 12.121094 -13.519531 11.921875 -13.917969 12.222656 -14.316406 C 12.222656 -14.316406 12.222656 -14.367188 12.269531 -14.464844 C 12.320312 -14.617188 12.371094 -14.816406 12.519531 -15.066406 C 12.371094 -15.113281 12.269531 -15.414062 12.320312 -15.613281 C 12.46875 -15.960938 12.671875 -16.261719 12.71875 -16.609375 C 12.917969 -16.910156 12.96875 -17.308594 13.019531 -17.609375 C 13.117188 -18.105469 13.320312 -18.355469 13.46875 -18.855469 C 13.566406 -19.15625 13.617188 -19.453125 13.71875 -19.804688 C 13.71875 -19.902344 13.667969 -19.953125 13.667969 -20.050781 C 14.066406 -20.152344 13.96875 -20.703125 14.214844 -21 L 14.515625 -22.097656 C 14.714844 -22.695312 14.914062 -23.296875 15.164062 -23.792969 C 15.265625 -24.144531 15.3125 -24.542969 15.414062 -24.839844 C 15.511719 -25.089844 15.613281 -25.191406 15.8125 -25.441406 C 15.863281 -25.640625 15.960938 -25.839844 16.011719 -26.136719 C 16.210938 -26.4375 16.363281 -26.738281 16.5625 -27.085938 C 16.761719 -27.386719 16.859375 -27.734375 17.011719 -28.082031 C 17.160156 -28.382812 17.308594 -28.730469 17.410156 -29.03125 C 17.757812 -29.480469 18.007812 -29.878906 18.207031 -30.230469 C 18.308594 -30.429688 18.457031 -30.675781 18.65625 -30.925781 C 19.15625 -31.675781 19.703125 -32.421875 20.300781 -33.023438 L 21.25 -33.96875 C 21.398438 -34.070312 21.597656 -34.121094 21.75 -34.320312 L 22.097656 -34.71875 C 22.296875 -34.867188 22.496094 -34.917969 22.695312 -34.96875 C 22.746094 -34.96875 22.796875 -34.867188 22.796875 -34.71875 C 23.195312 -33.96875 23.09375 -33.222656 22.996094 -32.421875 Z M 22.996094 -32.421875 "/></g></g></g><g fill="#000000" fill-opacity="1"><g transform="translate(114.271503, 72.00797)"><g><path d="M 17.109375 -1.796875 C 16.910156 -1.796875 15.761719 -0.996094 15.363281 -0.949219 L 14.367188 -0.5 C 13.617188 -0.101562 13.367188 0.0507812 12.769531 0.347656 C 12.070312 0.949219 11.222656 1.347656 10.175781 1.945312 C 10.078125 2.09375 9.925781 2.09375 9.828125 1.945312 L 9.925781 1.84375 C 10.027344 1.398438 10.027344 1.046875 10.125 0.597656 C 10.125 0.5 10.375 0.101562 10.425781 0 C 10.375 -0.449219 10.675781 -0.949219 10.425781 -1.347656 C 10.324219 -1.597656 10.375 -1.84375 10.574219 -1.996094 C 10.574219 -1.996094 10.675781 -2.195312 10.675781 -2.34375 C 10.726562 -2.695312 10.675781 -3.09375 10.824219 -3.441406 C 10.773438 -3.742188 11.125 -4.539062 11.074219 -5.089844 L 11.074219 -5.1875 C 11.125 -5.335938 11.273438 -6.183594 11.324219 -6.535156 L 11.421875 -7.082031 C 11.023438 -7.082031 11.222656 -7.28125 10.875 -7.433594 L 10.773438 -7.78125 L 10.773438 -7.882812 C 10.675781 -7.882812 10.476562 -7.980469 10.375 -7.980469 C 10.175781 -7.980469 9.875 -7.980469 9.777344 -8.179688 C 9.429688 -8.378906 9.328125 -8.230469 9.027344 -7.882812 C 8.429688 -7.582031 7.980469 -7.082031 7.382812 -6.585938 C 6.933594 -6.285156 6.632812 -5.835938 6.136719 -5.535156 C 5.738281 -5.238281 5.4375 -4.640625 4.988281 -4.390625 C 4.886719 -4.238281 4.488281 -3.992188 4.238281 -3.839844 C 4.390625 -4.238281 4.441406 -4.441406 4.441406 -4.839844 C 4.640625 -5.4375 4.789062 -6.136719 4.886719 -6.484375 C 5.039062 -7.035156 4.886719 -7.480469 5.039062 -7.730469 C 5.136719 -7.929688 5.039062 -8.082031 5.039062 -8.082031 C 4.738281 -8.332031 4.339844 -8.78125 4.089844 -8.929688 C 3.742188 -9.128906 3.742188 -9.078125 3.492188 -9.179688 C 3.144531 -9.179688 3.042969 -9.027344 2.84375 -8.828125 C 2.84375 -8.679688 2.742188 -8.378906 2.894531 -8.230469 C 3.042969 -7.929688 3.042969 -7.632812 2.941406 -7.332031 C 2.742188 -6.882812 2.695312 -6.335938 2.644531 -5.984375 C 2.542969 -5.335938 2.492188 -4.488281 2.292969 -3.890625 C 2.292969 -3.492188 1.894531 -3.242188 1.945312 -2.695312 C 2.046875 -2.394531 2.246094 -1.996094 2.394531 -1.695312 C 2.34375 -1.597656 3.492188 -0.996094 3.742188 -0.996094 C 4.140625 -1.097656 4.390625 -1.398438 4.789062 -1.695312 C 5.386719 -1.996094 5.738281 -2.542969 6.335938 -2.792969 C 7.132812 -3.492188 7.730469 -4.238281 8.480469 -4.6875 L 8.828125 -4.589844 C 8.78125 -4.289062 8.628906 -3.992188 8.679688 -3.640625 C 8.628906 -2.742188 8.480469 -1.796875 8.230469 -0.699219 C 8.179688 -0.0507812 8.082031 0.546875 7.929688 1.296875 C 7.980469 1.796875 7.78125 2.195312 7.683594 2.695312 C 7.683594 3.144531 7.730469 3.492188 7.183594 3.792969 C 6.832031 3.941406 6.335938 4.339844 5.886719 4.589844 C 5.585938 4.9375 5.136719 5.089844 4.589844 5.488281 C 4.039062 5.886719 3.34375 6.386719 2.695312 6.882812 C 1.496094 7.78125 0.347656 8.828125 -0.796875 9.777344 C -1.84375 10.875 -2.992188 11.972656 -3.890625 13.167969 C -4.839844 14.414062 -5.785156 15.761719 -6.632812 17.210938 C -7.53125 18.753906 -8.230469 20.402344 -8.628906 22.097656 C -8.628906 22.648438 -8.730469 23.296875 -8.878906 24.09375 C -8.828125 24.242188 -8.828125 24.390625 -8.828125 24.792969 C -9.128906 25.6875 -8.980469 26.585938 -8.480469 27.335938 C -8.230469 27.933594 -7.882812 28.53125 -7.683594 28.980469 C -6.785156 30.230469 -5.886719 31.027344 -4.339844 31.324219 C -3.992188 31.476562 -3.492188 31.476562 -3.191406 31.425781 C -2.59375 31.277344 -1.296875 31.375 -0.796875 30.976562 C -0.847656 30.976562 0.0507812 30.328125 0.449219 29.980469 C 0.949219 29.78125 1.347656 29.53125 1.597656 29.429688 L 2.09375 28.632812 L 2.992188 27.285156 L 3.890625 25.191406 L 6.035156 20.703125 L 6.832031 17.160156 C 6.933594 16.710938 7.433594 15.511719 7.53125 15.414062 L 7.78125 13.816406 L 7.832031 13.816406 C 7.882812 13.917969 8.082031 13.816406 7.980469 13.46875 C 8.332031 13.21875 8.429688 11.574219 8.53125 11.171875 C 8.578125 10.875 9.328125 5.886719 9.429688 5.886719 L 9.328125 5.886719 C 9.328125 5.6875 9.429688 5.585938 9.476562 5.386719 C 9.628906 5.335938 9.578125 4.886719 9.726562 4.789062 C 10.027344 4.488281 10.125 4.191406 10.226562 3.839844 L 10.523438 3.792969 L 11.574219 3.242188 L 13.765625 1.597656 L 14.816406 0.996094 C 15.214844 0.597656 15.5625 0.546875 15.914062 0.300781 C 16.011719 0.300781 16.261719 0 16.410156 -0.101562 C 16.511719 -0.300781 16.960938 -0.796875 17.210938 -1.195312 Z M 7.035156 7.332031 C 6.683594 8.429688 6.484375 9.726562 6.433594 10.726562 C 6.183594 11.621094 6.035156 12.46875 5.886719 13.417969 C 5.9375 13.519531 5.6875 13.617188 5.6875 13.917969 L 5.835938 13.917969 C 5.585938 14.714844 5.335938 15.714844 5.238281 16.160156 C 4.6875 17.90625 3.890625 19.652344 3.34375 21.398438 C 3.042969 22 2.941406 22.597656 2.695312 23.195312 C 2.246094 24.042969 1.796875 24.792969 1.296875 25.789062 C 0.996094 26.738281 0.148438 27.535156 -0.597656 28.285156 C -1.246094 28.882812 -2.09375 29.582031 -2.941406 29.730469 C -3.691406 30.128906 -4.539062 30.179688 -5.238281 29.78125 L -5.386719 29.679688 L -5.488281 29.679688 C -5.535156 29.53125 -5.535156 29.429688 -5.535156 29.429688 C -5.835938 29.28125 -5.9375 29.03125 -5.9375 28.78125 C -6.136719 28.632812 -6.183594 28.382812 -6.183594 27.984375 C -6.386719 27.835938 -6.433594 27.734375 -6.585938 27.636719 C -6.585938 27.386719 -6.585938 27.386719 -6.785156 27.433594 L -6.785156 26.988281 L -6.585938 26.6875 C -6.785156 26.039062 -6.882812 25.589844 -6.882812 25.039062 C -6.882812 24.441406 -6.933594 23.894531 -6.632812 23.195312 C -6.386719 22.945312 -6.335938 22.398438 -6.335938 22.199219 C -6.183594 21.847656 -6.136719 21.398438 -5.886719 21.101562 C -5.835938 20.75 -5.785156 20.351562 -5.535156 20.003906 C -5.1875 19.804688 -5.238281 19.355469 -4.9375 19.203125 C -4.6875 18.855469 -4.589844 18.65625 -4.441406 18.554688 C -4.589844 18.554688 -4.589844 18.355469 -4.738281 18.355469 L -4.589844 18.257812 C -4.339844 18.355469 -4.089844 17.957031 -3.992188 17.707031 C -3.890625 17.457031 -3.589844 16.960938 -3.492188 16.710938 C -3.191406 16.011719 -2.59375 15.5625 -2.246094 14.964844 C -2.09375 14.964844 -1.945312 14.964844 -1.945312 14.765625 C -1.894531 14.316406 -1.695312 14.316406 -1.597656 13.917969 C -1.296875 13.917969 -1.195312 13.765625 -1.195312 13.617188 C -1.046875 13.519531 -0.75 13.320312 -0.648438 13.019531 C -0.699219 12.871094 -0.449219 12.871094 -0.398438 12.671875 L -0.648438 12.671875 L -0.398438 12.519531 C 0.101562 12.421875 0.449219 11.820312 0.847656 11.523438 C 0.796875 11.421875 0.996094 11.273438 1.148438 11.273438 C 1.296875 11.125 1.347656 10.875 1.445312 10.875 C 1.695312 10.726562 1.84375 10.726562 1.894531 10.726562 C 1.84375 10.675781 2.09375 10.425781 2.246094 10.175781 C 2.492188 10.078125 2.59375 9.828125 2.742188 9.628906 C 2.742188 9.476562 2.894531 9.476562 2.894531 9.476562 C 3.589844 9.328125 4.140625 8.828125 4.488281 8.378906 C 4.6875 8.179688 4.988281 8.082031 5.136719 7.882812 C 5.238281 7.882812 5.4375 7.683594 5.6875 7.53125 L 5.6875 7.382812 C 6.085938 7.382812 6.386719 7.035156 6.632812 6.632812 C 6.632812 6.386719 6.882812 6.386719 7.183594 6.285156 C 7.035156 6.585938 7.035156 6.984375 7.035156 7.332031 Z M 7.035156 7.332031 "/></g></g></g><g fill="#000000" fill-opacity="1"><g transform="translate(130.232996, 72.00797)"><g><path d="M 8.628906 7.882812 C 8.730469 7.882812 8.78125 7.78125 8.828125 7.683594 L 8.78125 7.480469 C 8.578125 7.332031 8.578125 6.984375 8.378906 6.683594 C 8.128906 5.9375 7.929688 5.136719 7.929688 4.238281 C 7.882812 3.242188 8.03125 2.34375 8.128906 1.296875 C 8.429688 -1.148438 9.078125 -3.492188 9.628906 -5.886719 C 9.726562 -6.335938 9.925781 -6.832031 10.324219 -7.132812 C 10.476562 -6.933594 10.625 -6.683594 10.824219 -6.433594 C 11.671875 -5.089844 12.820312 -4.390625 14.265625 -4.089844 C 14.964844 -3.941406 15.761719 -4.039062 16.511719 -4.039062 C 17.859375 -4.089844 19.105469 -4.640625 20.402344 -5.089844 C 21.398438 -5.636719 22.398438 -6.183594 23.394531 -6.785156 C 24.242188 -7.183594 24.890625 -7.683594 25.6875 -8.480469 C 26.339844 -9.027344 27.035156 -9.925781 27.734375 -10.324219 C 27.984375 -10.425781 28.132812 -10.773438 28.132812 -11.023438 C 28.082031 -11.523438 28.382812 -12.023438 28.53125 -12.46875 C 28.78125 -13.167969 28.980469 -14.617188 28.832031 -15.066406 C 28.632812 -15.914062 28.433594 -16.5625 28.234375 -17.308594 C 28.132812 -17.609375 28.035156 -17.90625 27.882812 -18.007812 C 27.433594 -18.40625 27.136719 -18.855469 26.9375 -19.453125 C 26.785156 -19.605469 26.636719 -19.652344 26.488281 -19.804688 C 25.640625 -20.652344 24.542969 -21.398438 23.34375 -21.796875 C 21.101562 -22.648438 18.804688 -22.695312 16.609375 -22.347656 C 14.316406 -22 12.121094 -21.25 10.027344 -20.203125 C 8.378906 -19.402344 6.832031 -18.40625 5.335938 -17.257812 C 4.839844 -17.011719 4.441406 -16.511719 4.039062 -16.113281 C 3.292969 -15.265625 3.34375 -14.265625 3.992188 -13.46875 C 4.191406 -13.269531 4.390625 -13.21875 4.640625 -13.367188 L 5.835938 -14.664062 L 6.632812 -15.265625 C 6.933594 -15.613281 7.28125 -15.761719 7.632812 -16.011719 C 8.679688 -16.859375 9.828125 -17.359375 11.023438 -17.957031 C 11.125 -18.058594 11.222656 -18.058594 11.574219 -18.15625 C 11.074219 -16.859375 10.675781 -15.761719 10.324219 -14.566406 C 9.476562 -11.972656 8.578125 -9.328125 7.730469 -6.683594 C 6.984375 -3.992188 6.484375 -1.246094 6.035156 1.644531 C 5.886719 2.992188 5.9375 4.339844 6.535156 5.6875 C 6.832031 6.535156 7.183594 7.28125 7.929688 7.730469 C 8.179688 7.882812 8.378906 8.03125 8.628906 7.882812 Z M 15.414062 -6.386719 C 14.214844 -6.234375 13.019531 -6.433594 11.921875 -7.132812 C 11.671875 -7.28125 11.421875 -7.433594 11.171875 -7.632812 C 10.972656 -7.832031 10.324219 -8.480469 11.074219 -10.125 C 11.324219 -10.824219 11.574219 -11.523438 11.871094 -12.269531 C 12.570312 -14.117188 13.269531 -15.960938 14.066406 -17.757812 C 14.265625 -18.40625 14.464844 -18.957031 14.765625 -19.804688 C 16.113281 -20.050781 17.457031 -20.351562 18.753906 -20.5 C 19.804688 -20.550781 20.800781 -20.652344 21.847656 -20.402344 C 22.996094 -20.203125 24.144531 -19.953125 25.191406 -19.402344 C 25.539062 -19.15625 25.738281 -19.003906 25.988281 -18.855469 C 26.585938 -18.457031 27.035156 -17.808594 27.234375 -17.011719 C 27.636719 -15.265625 27.433594 -13.816406 26.488281 -12.519531 C 26.039062 -11.820312 25.488281 -11.222656 24.792969 -10.675781 C 23.59375 -9.628906 22.246094 -8.78125 20.902344 -8.179688 C 19.105469 -7.28125 17.257812 -6.632812 15.414062 -6.386719 Z M 15.414062 -6.386719 "/></g></g></g><g fill="#000000" fill-opacity="1"><g transform="translate(160.110917, 72.00797)"><g><path d="M 18.90625 -6.632812 L 18.707031 -7.082031 L 18.554688 -7.183594 C 18.058594 -6.882812 17.660156 -6.632812 17.308594 -6.335938 C 16.160156 -5.585938 16.261719 -5.6875 15.066406 -4.9375 C 14.367188 -4.441406 13.617188 -3.992188 12.96875 -3.589844 C 12.269531 -3.09375 11.472656 -2.492188 10.675781 -2.144531 C 10.476562 -2.046875 10.277344 -2.046875 10.125 -1.996094 C 9.976562 -1.945312 9.875 -1.945312 9.777344 -1.996094 C 9.527344 -2.144531 9.378906 -2.34375 9.328125 -2.542969 C 9.027344 -3.242188 9.027344 -3.992188 9.179688 -4.6875 C 9.226562 -4.789062 9.226562 -4.886719 9.277344 -4.9375 C 9.429688 -5.335938 9.378906 -5.886719 9.378906 -5.886719 C 9.277344 -6.234375 9.078125 -6.484375 8.78125 -6.585938 C 8.179688 -6.632812 7.832031 -6.234375 7.433594 -6.183594 C 7.683594 -6.683594 8.082031 -7.132812 7.929688 -7.832031 C 7.730469 -8.980469 6.535156 -9.179688 5.488281 -9.378906 C 4.539062 -9.277344 3.691406 -8.679688 3.09375 -8.03125 C 2.492188 -7.28125 1.84375 -6.683594 1.296875 -5.835938 C 1.195312 -5.738281 1.097656 -5.488281 0.898438 -5.238281 L 0.546875 -4.640625 C 0.449219 -4.289062 0.300781 -4.039062 0.25 -3.742188 C 0.25 -3.691406 0.25 -3.691406 0.199219 -3.640625 C 0.101562 -3.34375 0 -3.09375 -0.148438 -2.742188 C -0.347656 -1.996094 -0.199219 -1.347656 0.25 -0.75 C 0.546875 -0.597656 0.949219 -0.347656 1.046875 -0.25 C 1.195312 -0.199219 1.347656 -0.199219 1.445312 -0.199219 C 2.195312 0.101562 3.042969 0.101562 3.839844 -0.300781 C 4.640625 -0.648438 5.4375 -1.296875 6.035156 -1.746094 C 6.136719 -1.796875 6.183594 -1.945312 6.285156 -2.046875 C 6.632812 -2.046875 6.632812 -2.542969 6.984375 -2.742188 C 7.035156 -2.644531 7.035156 -2.542969 7.132812 -2.492188 C 7.28125 -2.246094 7.234375 -2.144531 7.53125 -1.84375 C 7.730469 -1.398438 8.082031 -1.195312 8.378906 -0.796875 C 8.53125 -0.75 8.628906 -0.546875 8.78125 -0.5 C 8.878906 -0.398438 9.179688 -0.398438 9.277344 -0.347656 C 9.476562 -0.300781 9.925781 -0.398438 10.125 -0.398438 C 10.277344 -0.398438 10.523438 -0.5 10.574219 -0.5 C 10.726562 -0.5 10.972656 -0.597656 11.074219 -0.648438 C 11.324219 -0.796875 11.472656 -0.75 11.773438 -0.898438 C 12.269531 -1.246094 12.71875 -1.347656 13.117188 -1.796875 L 14.316406 -2.695312 L 15.066406 -3.34375 C 15.214844 -3.390625 15.5625 -3.792969 15.613281 -3.839844 C 15.863281 -3.941406 16.0625 -4.191406 16.210938 -4.339844 C 16.363281 -4.441406 16.710938 -4.589844 16.960938 -4.789062 C 17.609375 -5.238281 18.40625 -5.886719 18.90625 -6.632812 Z M 6.734375 -5.238281 C 5.984375 -4.441406 5.636719 -3.839844 4.886719 -3.042969 C 4.390625 -2.492188 3.941406 -2.144531 3.292969 -1.894531 C 2.792969 -1.695312 1.894531 -1.644531 1.347656 -1.644531 C 1.597656 -2.644531 2.046875 -3.492188 2.492188 -4.289062 C 3.042969 -5.238281 4.789062 -7.582031 6.285156 -7.832031 C 6.234375 -7.78125 5.835938 -5.585938 6.933594 -5.488281 L 6.984375 -5.488281 C 6.984375 -5.488281 6.785156 -5.238281 6.734375 -5.238281 Z M 6.734375 -5.238281 "/></g></g></g><g fill="#000000" fill-opacity="1"><g transform="translate(176.271933, 72.00797)"><g><path d="M 16.113281 -28.683594 C 16.011719 -28.933594 16.011719 -29.179688 15.960938 -29.582031 C 16.011719 -29.628906 16.011719 -29.730469 15.960938 -29.78125 L 15.664062 -30.027344 C 15.464844 -30.230469 15.214844 -30.429688 14.964844 -30.527344 C 14.816406 -30.628906 14.566406 -30.726562 14.367188 -30.828125 C 13.667969 -31.027344 13.070312 -31.175781 12.519531 -30.628906 C 12.121094 -30.230469 11.671875 -29.78125 11.222656 -29.378906 C 10.773438 -28.933594 10.324219 -28.285156 9.976562 -27.636719 L 8.03125 -24.042969 C 7.980469 -23.945312 7.882812 -23.945312 7.832031 -23.84375 L 7.433594 -22.996094 L 7.082031 -21.847656 C 7.035156 -21.648438 6.632812 -21 6.535156 -20.949219 C 6.535156 -20.851562 5.335938 -17.808594 5.289062 -17.707031 C 5.089844 -17.410156 5.089844 -17.109375 4.988281 -16.808594 C 4.789062 -16.410156 4.640625 -15.960938 4.441406 -15.613281 C 4.238281 -14.914062 3.941406 -14.117188 3.742188 -13.367188 C 3.492188 -12.71875 3.390625 -12.023438 3.242188 -11.472656 C 3.09375 -10.773438 3.042969 -10.523438 2.894531 -9.976562 C 2.792969 -9.578125 2.792969 -9.476562 2.792969 -9.277344 L 2.492188 -7.632812 C 2.144531 -5.636719 2.144531 -5.136719 2.09375 -4.488281 C 1.945312 -3.042969 1.945312 -2.195312 2.09375 -0.949219 C 2.195312 -0.398438 2.292969 0.148438 2.445312 0.597656 C 2.644531 1.046875 2.742188 1.445312 2.992188 1.796875 C 3.292969 2.144531 3.492188 2.445312 3.742188 2.742188 C 3.890625 2.894531 4.238281 3.191406 4.488281 3.292969 C 5.386719 3.691406 5.835938 3.640625 6.484375 3.492188 C 7.53125 3.191406 8.082031 1.195312 7.28125 1.546875 C 6.484375 2.09375 6.035156 2.445312 5.238281 2.09375 C 4.886719 1.945312 4.441406 1.246094 4.238281 0.75 C 3.839844 -0.199219 3.640625 -1.347656 3.589844 -2.695312 C 3.542969 -3.542969 3.742188 -4.886719 3.839844 -5.6875 C 3.941406 -6.335938 4.191406 -7.28125 4.441406 -7.683594 C 5.089844 -8.230469 5.886719 -9.078125 6.433594 -9.675781 L 7.433594 -10.625 C 7.582031 -10.773438 7.582031 -11.023438 7.832031 -11.222656 C 7.832031 -11.222656 7.882812 -11.273438 7.980469 -11.222656 L 10.675781 -14.617188 C 11.023438 -15.113281 14.066406 -20.5 14.117188 -20.453125 C 14.214844 -20.75 14.316406 -21.050781 14.265625 -21.351562 C 14.214844 -21.449219 14.117188 -21.597656 14.214844 -21.75 C 14.316406 -21.847656 14.414062 -22.046875 14.515625 -22.199219 L 14.714844 -23.046875 L 15.265625 -23.742188 L 15.164062 -23.894531 C 15.265625 -23.945312 15.613281 -24.34375 15.363281 -24.640625 L 15.863281 -27.136719 C 15.714844 -27.535156 16.0625 -27.484375 16.0625 -27.882812 Z M 13.765625 -26.6875 C 13.617188 -25.738281 13.417969 -24.890625 13.070312 -24.042969 C 12.820312 -23.144531 12.421875 -22.296875 12.121094 -21.597656 C 11.621094 -20.550781 11.171875 -19.703125 10.726562 -18.707031 C 10.324219 -18.058594 10.027344 -17.457031 9.628906 -16.859375 C 9.328125 -16.410156 8.980469 -15.914062 8.578125 -15.511719 C 8.03125 -14.714844 7.332031 -13.816406 6.734375 -13.070312 C 6.285156 -12.570312 5.6875 -11.722656 5.289062 -11.273438 L 5.585938 -12.671875 C 5.6875 -12.96875 5.835938 -13.117188 5.886719 -13.269531 C 6.234375 -13.96875 6.433594 -14.714844 6.683594 -15.464844 C 6.984375 -15.960938 7.183594 -16.660156 7.382812 -17.109375 C 7.480469 -17.359375 7.433594 -17.558594 7.53125 -17.859375 C 7.53125 -18.105469 7.683594 -18.40625 7.832031 -18.753906 C 7.980469 -19.105469 8.082031 -19.503906 8.332031 -19.953125 C 8.429688 -20.101562 8.53125 -20.351562 8.628906 -20.550781 C 8.828125 -21.101562 9.078125 -21.75 9.328125 -22.246094 C 9.527344 -22.746094 9.875 -23.246094 10.125 -23.742188 C 10.476562 -24.292969 10.972656 -24.839844 11.171875 -25.488281 C 11.421875 -26.136719 11.871094 -26.6875 12.320312 -27.234375 C 12.621094 -27.785156 13.117188 -28.234375 13.566406 -28.683594 C 13.667969 -28.78125 13.71875 -28.882812 13.765625 -28.980469 L 14.117188 -29.28125 C 14.214844 -29.230469 14.265625 -29.230469 14.316406 -29.230469 C 14.117188 -28.382812 14.066406 -27.484375 13.765625 -26.6875 Z M 13.765625 -26.6875 "/></g></g></g><g fill="#000000" fill-opacity="1"><g transform="translate(188.143294, 72.00797)"><g><path d="M 8.730469 -9.828125 C 8.578125 -9.925781 8.332031 -10.175781 7.332031 -10.175781 C 6.734375 -10.175781 6.484375 -10.027344 6.035156 -9.925781 L 5.585938 -9.675781 C 5.238281 -9.527344 5.238281 -9.527344 4.988281 -9.328125 C 4.839844 -9.027344 4.589844 -8.730469 4.390625 -8.480469 C 4.140625 -8.179688 4.238281 -7.730469 4.191406 -7.382812 C 3.992188 -7.183594 4.039062 -6.585938 4.039062 -6.386719 L 4.238281 -5.984375 C 4.191406 -5.738281 4.289062 -5.535156 4.390625 -5.335938 C 4.640625 -4.886719 4.6875 -4.589844 4.886719 -3.992188 L 4.9375 -3.792969 L 5.039062 -3.542969 L 5.238281 -3.242188 L 5.535156 -2.644531 L 5.636719 -2.492188 L 6.335938 -0.699219 C 6.632812 0.0507812 6.734375 0.398438 6.683594 1.046875 C 6.734375 1.445312 6.734375 1.894531 6.632812 2.34375 C 6.585938 2.644531 6.484375 2.992188 6.234375 3.34375 C 5.835938 3.890625 5.535156 4.039062 4.589844 4.191406 C 4.289062 4.238281 3.890625 4.140625 3.640625 3.992188 C 3.242188 3.589844 2.941406 3.390625 2.941406 2.941406 C 2.992188 2.84375 2.84375 2.695312 2.742188 2.59375 C 2.542969 2.246094 2.492188 1.796875 2.59375 0.949219 L 2.894531 0.25 L 3.492188 -0.398438 L 3.441406 -0.847656 L 3.34375 -0.949219 L 3.34375 -0.996094 C 2.894531 -0.796875 2.84375 -0.847656 2.445312 -0.546875 C 1.996094 -0.25 1.496094 0.199219 1.148438 0.648438 L 1.097656 1.546875 C 1.097656 1.546875 0.996094 1.546875 0.996094 1.644531 L 0.996094 1.695312 C 0.996094 2.195312 1.148438 2.742188 1.398438 3.09375 C 1.597656 3.34375 1.796875 3.742188 2.144531 4.039062 C 2.34375 4.339844 2.742188 4.738281 3.191406 5.039062 C 3.390625 5.335938 3.792969 5.335938 3.890625 5.4375 C 4.140625 5.535156 4.539062 5.535156 4.9375 5.636719 C 5.386719 5.6875 5.738281 5.738281 6.035156 5.636719 L 6.535156 5.488281 C 6.484375 5.386719 6.433594 5.386719 6.433594 5.335938 C 6.585938 5.335938 6.734375 5.335938 6.882812 5.289062 C 7.183594 5.1875 7.683594 4.738281 8.03125 4.238281 C 8.378906 3.941406 8.480469 3.441406 8.480469 3.390625 C 8.53125 3.09375 8.878906 2.695312 8.679688 2.492188 C 8.78125 2.246094 8.730469 2.144531 8.679688 1.996094 C 8.78125 1.246094 8.828125 0.898438 8.679688 0.148438 C 8.679688 0.0507812 8.53125 0 8.53125 -0.101562 C 8.628906 -0.300781 8.53125 -0.347656 8.429688 -0.449219 C 8.378906 -0.597656 8.28125 -0.75 8.28125 -0.996094 L 8.128906 -1.496094 C 7.980469 -1.945312 7.882812 -1.996094 7.78125 -2.445312 C 7.78125 -2.59375 7.480469 -2.792969 7.53125 -2.941406 C 7.480469 -3.042969 7.332031 -3.09375 7.382812 -3.191406 L 7.132812 -3.390625 L 6.984375 -3.839844 L 6.882812 -4.089844 L 6.683594 -4.441406 L 6.683594 -4.738281 C 6.585938 -4.789062 6.585938 -4.839844 6.585938 -4.988281 C 6.585938 -5.136719 6.433594 -5.289062 6.433594 -5.488281 C 6.285156 -5.886719 6.136719 -6.183594 6.183594 -6.683594 C 6.035156 -7.082031 6.035156 -7.480469 6.183594 -7.78125 C 6.234375 -8.03125 6.433594 -8.179688 6.585938 -8.28125 C 6.683594 -8.429688 6.832031 -8.53125 6.933594 -8.578125 C 7.132812 -8.730469 7.132812 -8.628906 7.582031 -8.78125 L 8.128906 -8.78125 C 8.730469 -8.628906 9.226562 -8.480469 9.378906 -8.230469 L 9.527344 -8.230469 L 9.527344 -8.28125 L 9.777344 -8.28125 L 9.828125 -8.179688 L 9.925781 -8.128906 C 9.925781 -8.332031 9.976562 -9.027344 8.730469 -9.828125 Z M 8.730469 -9.828125 "/></g></g></g><g fill="#000000" fill-opacity="1"><g transform="translate(200.054463, 72.00797)"><g/></g></g></svg>